<svg width="20" height="20" viewBox="0 0 20 20" fill="none" xmlns="http://www.w3.org/2000/svg">
<rect width="20" height="20" rx="4" fill="#151A30"/>
<path d="M18.0791 18.042H17.0988C17.0575 17.996 17.0107 17.9405 16.9564 17.8755C16.5151 17.3353 15.6704 16.1271 14.5939 14.1953C14.4183 13.8799 14.2359 13.5448 14.0481 13.1908C13.7566 12.6391 13.4516 12.0401 13.1356 11.3923C11.2266 7.47517 13.2773 4.08669 14.5417 2.88184H15.5219C15.4582 2.95968 15.3965 3.03887 15.3376 3.11875C13.3112 5.86487 14.259 9.75154 15.0108 11.393L15.1165 11.6224L15.8751 13.2666L18.0784 18.0427L18.0791 18.042Z" fill="#FFE920"/>
<path d="M10.9732 11.4903C9.06412 15.4075 7.5354 17.5559 7.01068 18.14H6.0304L6.11581 17.9539L9.09802 11.4897C9.83154 9.88883 10.7515 6.1531 8.91633 3.42255C8.81532 3.27093 8.7055 3.12337 8.58686 2.97852H9.56714C9.61867 3.02725 9.67155 3.08005 9.72442 3.13623C9.73934 3.1518 9.75357 3.16669 9.76849 3.18226C11.0321 4.534 12.7832 7.77357 10.9732 11.489V11.4903Z" fill="#20C997"/>
<path fill-rule="evenodd" clip-rule="evenodd" d="M13.3486 3.82623C13.1547 4.11933 12.9655 4.44897 12.7954 4.80907L10.0979 3.25359C9.9935 3.19335 9.87961 3.15747 9.76301 3.14664C9.73928 3.14393 9.71623 3.14258 9.6925 3.14258C9.59285 3.14123 9.49184 3.15747 9.39693 3.19267C9.35218 3.20824 9.30812 3.22855 9.26609 3.25291L9.05661 3.37408L8.95559 3.43229L8.86882 3.4817L4.55923 5.96587C4.30162 6.11478 4.14299 6.38892 4.14299 6.68539V12.1127C4.14299 12.4091 4.30162 12.6833 4.55923 12.8315L7.43568 14.4899L6.95978 15.5214L3.98774 13.8211C3.37625 13.4685 3 12.8173 3 12.1127V6.68539C3 5.98076 3.37625 5.32892 3.98774 4.97694L8.69324 2.26398C9.30473 1.91201 10.0579 1.91201 10.6694 2.26398L13.3486 3.82556V3.82623Z" fill="#096CFF"/>
<path fill-rule="evenodd" clip-rule="evenodd" d="M16.364 6.68545V12.1127C16.364 12.4789 16.2623 12.8309 16.0793 13.1334C16.0481 13.1849 16.0149 13.235 15.979 13.283C15.9159 13.369 15.8447 13.4502 15.7675 13.5247C15.6508 13.6384 15.5207 13.7379 15.3763 13.8212L14.8095 14.1474L14.697 14.2124L14.4665 14.3457L10.6688 16.5348C10.0573 16.8868 9.30409 16.8868 8.6926 16.5348L8.65125 16.5111C8.83768 16.2194 9.03699 15.8945 9.24918 15.5364L9.26477 15.5459C9.5217 15.6941 9.83897 15.6941 10.0966 15.5459L13.9147 13.3453L14.152 13.2086L14.2713 13.1402L14.8048 12.8329C15.0082 12.7151 15.1512 12.5188 15.2007 12.2948C15.2136 12.2359 15.221 12.1757 15.221 12.1141V6.6868C15.221 6.39032 15.0624 6.11619 14.8048 5.96727L14.6475 5.87657C14.7221 5.49413 14.8278 5.1144 14.9716 4.74414L15.377 4.97767C15.9885 5.32965 16.3647 5.98149 16.3647 6.68612L16.364 6.68545Z" fill="#096CFF"/>
</svg>
