<svg width="152" height="40" viewBox="0 0 152 40" fill="none" xmlns="http://www.w3.org/2000/svg">
<path d="M34.5591 37.9604H32.4248C32.3348 37.8601 32.2329 37.7393 32.1149 37.5978C31.154 36.4218 29.3149 33.7912 26.971 29.5851C26.5887 28.8984 26.1917 28.1689 25.7828 27.3981C25.1481 26.197 24.4839 24.8928 23.7961 23.4824C19.6397 14.954 24.1046 7.57646 26.8573 4.95322H28.9916C28.8529 5.1227 28.7186 5.29512 28.5902 5.46902C24.1784 11.4479 26.2419 19.9101 27.8787 23.4839L28.109 23.9835L29.7606 27.5632L34.5577 37.9618L34.5591 37.9604Z" fill="#FFE920"/>
<path d="M19.0876 23.6961C14.9312 32.2246 11.6028 36.9022 10.4604 38.1741H8.32611L8.51209 37.7688L15.005 23.6947C16.6021 20.2093 18.605 12.0758 14.6095 6.13074C14.3895 5.80062 14.1504 5.47935 13.8921 5.16397H16.0264C16.1386 5.27008 16.2537 5.38503 16.3688 5.50735C16.4013 5.54125 16.4323 5.57367 16.4648 5.60756C19.2161 8.5506 23.0286 15.6039 19.0876 23.6932V23.6961Z" fill="#20C997"/>
<path fill-rule="evenodd" clip-rule="evenodd" d="M24.2596 7.01055C23.8374 7.64867 23.4256 8.36638 23.0551 9.15041L17.1821 5.76377C16.9548 5.63261 16.7069 5.5545 16.453 5.53092C16.4013 5.52503 16.3511 5.52208 16.2995 5.52208C16.0825 5.51913 15.8626 5.5545 15.6559 5.63114C15.5585 5.66503 15.4626 5.70924 15.3711 5.7623L14.915 6.0261L14.6951 6.15284L14.5061 6.26042L5.1232 11.669C4.56232 11.9932 4.21693 12.5901 4.21693 13.2356V25.052C4.21693 25.6975 4.56232 26.2943 5.1232 26.6171L11.3859 30.2277L10.3497 32.4737L3.87893 28.7717C2.54757 28.0038 1.72839 26.5861 1.72839 25.052V13.2356C1.72839 11.7014 2.54757 10.2822 3.87893 9.51589L14.1239 3.60918C15.4552 2.84284 17.095 2.84284 18.4264 3.60918L24.2596 7.00908V7.01055Z" fill="#096CFF"/>
<path fill-rule="evenodd" clip-rule="evenodd" d="M30.8248 13.2371V25.0534C30.8248 25.8507 30.6034 26.6171 30.2049 27.2758C30.137 27.3878 30.0647 27.4969 29.9865 27.6015C29.8492 27.7887 29.6942 27.9655 29.5259 28.1276C29.2721 28.3752 28.9887 28.5919 28.6743 28.7731L27.4404 29.4835L27.1953 29.625L26.6935 29.9153L18.4249 34.6813C17.0936 35.4477 15.4537 35.4477 14.1224 34.6813L14.0323 34.6297C14.4382 33.9946 14.8722 33.2872 15.3342 32.5076L15.3681 32.5282C15.9275 32.8509 16.6183 32.8509 17.1792 32.5282L25.492 27.7371L26.0086 27.4394L26.2684 27.2906L27.43 26.6215C27.8728 26.3651 28.1843 25.9377 28.292 25.4499C28.32 25.3217 28.3363 25.1905 28.3363 25.0564V13.24C28.3363 12.5945 27.9909 11.9977 27.43 11.6734L27.0876 11.476C27.2499 10.6433 27.4802 9.81654 27.7931 9.01041L28.6758 9.51884C30.0071 10.2852 30.8263 11.7044 30.8263 13.2385L30.8248 13.2371Z" fill="#096CFF"/>
<path d="M45.807 15.7365H41.5591V13.6777H52.5523V15.738H48.3044L48.3015 27.3583H45.8026L45.8041 15.7365H45.807Z" fill="white"/>
<path d="M53.4468 22.6807H55.6962C55.6962 24.4271 56.5287 25.6341 59.1515 25.6341C61.9412 25.6341 62.6497 24.5951 62.6497 23.4721C62.6497 22.7235 62.3382 22.2873 61.6917 22.0588C61.0039 21.7891 59.5264 21.6005 58.3397 21.434C56.9656 21.2468 55.5088 20.9344 54.7589 20.4569C53.9265 19.9367 53.4055 19.0008 53.4055 17.7128C53.4055 15.2178 55.5516 13.4729 59.1323 13.4729C63.1928 13.4729 64.6703 15.262 64.6703 18.3804H62.4209C62.4209 16.3629 61.3183 15.4064 59.1737 15.4064C57.1132 15.4064 55.8837 16.2582 55.8837 17.505C55.8837 18.2743 56.1538 18.7311 56.6955 18.9817C57.2992 19.2735 58.8401 19.5225 60.0268 19.6891C61.4629 19.9175 62.7958 20.1474 63.6489 20.6043C64.5862 21.0832 65.1264 22.0397 65.1264 23.3071C65.1264 25.5103 63.8349 27.5691 59.1707 27.5676C54.632 27.5676 53.4453 25.1758 53.4453 22.6807H53.4468Z" fill="white"/>
<path d="M67.3345 13.6821H73.3521C76.8709 13.6836 78.682 15.2015 78.682 17.6553C78.682 19.4223 77.9115 20.6278 76.3071 20.9181V20.9594C77.972 21.2099 78.5979 22.3742 78.5964 24.0159V27.3628H76.0768V24.0572C76.0768 22.6851 75.516 21.9365 73.6842 21.9365H69.8319V27.3613H67.333L67.336 13.6821H67.3345ZM73.392 20.2948C75.4112 20.2948 76.2864 19.4223 76.2864 17.9663C76.2864 16.5942 75.3285 15.763 73.33 15.7616H69.8319V20.2933H73.392V20.2948Z" fill="white"/>
<path d="M83.6835 21.3603C83.6835 17.6494 85.8296 15.0395 89.6687 15.0395C93.5284 15.0395 95.6731 17.6509 95.6716 21.3632C95.6716 25.0741 93.5461 27.7253 89.6657 27.7253C85.806 27.7253 83.682 25.0726 83.682 21.3618L83.6835 21.3603ZM94.5292 21.3618C94.5292 18.2419 92.9365 16.0799 89.6687 16.0784C86.4215 16.0784 84.8274 18.2389 84.8274 21.3588C84.8274 24.4787 86.3787 26.6819 89.6672 26.6819C92.9764 26.6819 94.5292 24.4802 94.5292 21.3603V21.3618Z" fill="white"/>
<path d="M97.8575 27.5013V18.0591H98.9217V20.4657H99.0236C99.4738 18.8137 100.535 17.9574 102.129 17.9574H102.538V19.0996H102.108C99.9845 19.0996 98.9424 20.0781 98.9424 22.5054V27.5013H97.859H97.8575Z" fill="white"/>
<path d="M110.482 25.2612H110.339C109.849 26.8927 108.52 27.7076 106.784 27.7076C104.864 27.7076 103.741 26.9118 103.741 25.1168C103.741 23.6077 104.824 22.4449 107.009 22.4464H110.44V21.4679C110.44 19.7554 109.788 18.8166 107.908 18.8166C106.376 18.8166 105.497 19.5918 105.15 21.0803L104.108 20.7737C104.538 18.8977 105.906 17.8572 107.928 17.8587C110.399 17.8587 111.522 19.104 111.522 21.4281V27.5057H110.479V25.2627L110.482 25.2612ZM110.44 24.0778V23.3027H107.091C105.601 23.3027 104.804 23.8936 104.804 25.077C104.804 25.9539 105.354 26.7497 106.969 26.7497C109.072 26.7497 110.442 25.609 110.442 24.0793L110.44 24.0778ZM105.989 16.2052L110.666 13.4729L111.156 14.3704L106.274 16.7755L105.987 16.2052H105.989Z" fill="white"/>
<path d="M118.203 18.8387C116.037 18.8387 114.709 20.224 114.709 22.8149C114.709 25.2008 115.995 26.7306 118.282 26.7306C120.406 26.7306 121.06 25.528 121.469 24.0602L122.491 24.3461C122.001 26.4874 120.713 27.7312 118.303 27.7312C115.341 27.7312 113.605 25.8331 113.607 22.7544C113.607 19.695 115.508 17.8602 118.223 17.8602C120.756 17.8602 122.023 19.0642 122.451 21.2262L121.409 21.4502C121.02 19.7981 120.225 18.8402 118.203 18.8387Z" fill="white"/>
<path d="M131.621 25.1021H131.457C130.967 26.6922 129.639 27.7327 127.903 27.7327C125.574 27.7327 124.594 26.2634 124.595 24.184V18.0665H125.679V24.0012C125.679 25.5309 126.29 26.7143 128.169 26.7143C130.212 26.7143 131.621 25.4705 131.621 23.5532V18.068H132.704V27.5102H131.62V25.1036L131.621 25.1021Z" fill="white"/>
<path d="M136.789 27.5102H135.707L135.71 14.4175H136.792L136.789 27.5102Z" fill="white"/>
<path d="M139.118 22.7382C139.118 19.6788 140.977 17.8646 143.755 17.8646C146.512 17.8646 148.391 19.6802 148.391 22.7397C148.391 25.7992 146.716 27.7356 143.754 27.7356C140.793 27.7356 139.118 25.7977 139.118 22.7382ZM140.22 22.7176C140.22 25.1242 141.383 26.735 143.733 26.7365C146.081 26.7365 147.287 25.1257 147.287 22.7191C147.287 20.3125 146.002 18.8446 143.755 18.8432C141.488 18.8432 140.222 20.311 140.222 22.7176H140.22Z" fill="white"/>
</svg>
