<?xml version="1.0" encoding="UTF-8"?>
<svg id="Camada_1" data-name="Camada 1" xmlns="http://www.w3.org/2000/svg" viewBox="0 0 1027.4 271.42">
  <defs>
    <style>
      .cls-1 {
        fill-rule: evenodd;
      }

      .cls-1, .cls-2 {
        fill: #f8fffb;
        stroke-width: 0px;
      }
    </style>
  </defs>
  <g>
    <g>
      <path class="cls-2" d="m306.65,102.94h-28.78s0-13.97,0-13.97h74.48s0,13.98,0,13.98h-28.78s-.02,78.85-.02,78.85h-16.93s.01-78.86.01-78.86Z"/>
      <path class="cls-2" d="m358.41,150.06h15.24c0,11.85,5.64,20.04,23.41,20.04,18.9,0,23.7-7.05,23.7-14.67,0-5.08-2.11-8.04-6.49-9.59-4.66-1.83-14.67-3.11-22.71-4.24-9.31-1.27-19.18-3.39-24.26-6.63-5.64-3.53-9.17-9.88-9.17-18.62,0-16.93,14.54-28.77,38.8-28.77,27.51,0,37.52,12.14,37.52,33.3h-15.24c0-13.69-7.47-20.18-22-20.18-13.96,0-22.29,5.78-22.29,14.24,0,5.22,1.83,8.32,5.5,10.02,4.09,1.98,14.53,3.67,22.57,4.8,9.73,1.55,18.76,3.11,24.54,6.21,6.35,3.25,10.01,9.74,10.01,18.34,0,14.95-8.75,28.92-40.35,28.91-30.75,0-38.79-16.23-38.79-33.16Z"/>
      <path class="cls-2" d="m452.5,89h40.77c23.84.01,36.11,10.31,36.11,26.96,0,11.99-5.22,20.17-16.09,22.14v.28c11.28,1.7,15.52,9.6,15.51,20.74v22.71s-17.07,0-17.07,0v-22.43c0-9.31-3.8-14.39-16.21-14.39h-26.1s0,36.81,0,36.81h-16.93s.02-92.82.02-92.82Zm41.04,44.87c13.68,0,19.61-5.92,19.61-15.8,0-9.31-6.49-14.95-20.03-14.96h-23.7s0,30.75,0,30.75h24.12Z"/>
    </g>
    <g>
      <path class="cls-2" d="m564.55,135.42c0-25.18,14.54-42.89,40.55-42.89,26.15,0,40.68,17.72,40.67,42.91,0,25.18-14.4,43.17-40.69,43.17-26.15,0-40.54-18-40.54-43.18Zm73.48.01c0-21.17-10.79-35.84-32.93-35.85-22,0-32.8,14.66-32.8,35.83,0,21.17,10.51,36.12,32.79,36.12,22.42,0,32.94-14.94,32.94-36.11Z"/>
      <path class="cls-2" d="m660.58,177.09v-64.07s7.21,0,7.21,0v16.33s.69,0,.69,0c3.05-11.21,10.24-17.02,21.04-17.02h2.77v7.75h-2.91c-14.39,0-21.45,6.64-21.45,23.11v33.9s-7.34,0-7.34,0Z"/>
      <path class="cls-2" d="m746.11,161.89h-.97c-3.32,11.07-12.32,16.6-24.08,16.6-13.01,0-20.62-5.4-20.62-17.58,0-10.24,7.34-18.13,22.14-18.12h23.25s0-6.64,0-6.64c0-11.62-4.42-17.99-17.16-17.99-10.38,0-16.33,5.26-18.68,15.36l-7.06-2.08c2.91-12.73,12.18-19.79,25.88-19.78,16.74,0,24.35,8.45,24.35,24.22v41.24s-7.07,0-7.07,0v-15.22Zm-.28-8.03v-5.26s-22.69,0-22.69,0c-10.1,0-15.5,4.01-15.5,12.04,0,5.95,3.73,11.35,14.67,11.35,14.25,0,23.53-7.74,23.53-18.12Zm-30.16-53.42l31.69-18.54,3.32,6.09-33.08,16.32-1.94-3.87Z"/>
      <path class="cls-2" d="m798.42,118.31c-14.67,0-23.67,9.4-23.67,26.98,0,16.19,8.71,26.57,24.21,26.57,14.39,0,18.82-8.16,21.59-18.12l6.92,1.94c-3.32,14.53-12.04,22.97-28.37,22.97-20.07,0-31.83-12.88-31.82-33.77,0-20.76,12.88-33.21,31.28-33.21,17.16,0,25.74,8.17,28.64,22.84l-7.06,1.52c-2.63-11.21-8.02-17.71-21.72-17.72Z"/>
      <path class="cls-2" d="m889.33,160.81h-1.11c-3.32,10.79-12.32,17.85-24.08,17.85-15.78,0-22.42-9.97-22.41-24.08v-41.51s7.34,0,7.34,0v40.27c0,10.38,4.14,18.41,16.87,18.41,13.84,0,23.39-8.44,23.39-21.45v-37.22s7.34,0,7.34,0v64.07s-7.35,0-7.35,0v-16.33Z"/>
      <path class="cls-2" d="m924.34,177.15h-7.33s.02-88.84.02-88.84h7.33s-.02,88.84-.02,88.84Z"/>
      <path class="cls-2" d="m940.12,144.77c0-20.76,12.6-33.07,31.42-33.07,18.68,0,31.41,12.32,31.41,33.08s-11.35,33.9-31.42,33.9c-20.06,0-31.41-13.15-31.41-33.91Zm7.47-.14c0,16.33,7.88,27.26,23.8,27.27,15.91,0,24.08-10.93,24.08-27.26,0-16.33-8.71-26.29-23.93-26.3-15.36,0-23.94,9.96-23.94,26.29Z"/>
    </g>
  </g>
  <g>
    <path class="cls-2" d="m234.14,257.58h-14.46c-.61-.68-1.3-1.5-2.1-2.46-6.51-7.98-18.97-25.83-34.85-54.37-2.59-4.66-5.28-9.61-8.05-14.84-4.3-8.15-8.8-17-13.46-26.57-28.16-57.87,2.09-107.93,20.74-125.73h14.46c-.94,1.15-1.85,2.32-2.72,3.5-29.89,40.57-15.91,97.99-4.82,122.24l1.56,3.39,11.19,24.29,32.5,70.56Z"/>
    <path class="cls-2" d="m129.32,160.79c-28.16,57.87-50.71,89.61-58.45,98.24h-14.46l1.26-2.75,43.99-95.5c10.82-23.65,24.39-78.84-2.68-119.18-1.49-2.24-3.11-4.42-4.86-6.56h14.46c.76.72,1.54,1.5,2.32,2.33.22.23.43.45.65.68,18.64,19.97,44.47,67.83,17.77,122.72Z"/>
    <g>
      <path class="cls-1" d="m164.36,47.57c-2.86,4.33-5.65,9.2-8.16,14.52h0l-39.79-22.98c-1.54-.89-3.22-1.42-4.94-1.58-.35-.04-.69-.06-1.04-.06-1.47-.02-2.96.22-4.36.74-.66.23-1.31.53-1.93.89l-3.09,1.79-1.49.86-1.28.73-63.57,36.7c-3.8,2.2-6.14,6.25-6.14,10.63v80.18c0,4.38,2.34,8.43,6.14,10.62l42.43,24.5-7.02,15.24-43.84-25.12c-9.02-5.21-14.57-14.83-14.57-25.24v-80.18c0-10.41,5.55-20.04,14.57-25.24L95.69,24.49c9.02-5.2,20.13-5.2,29.15,0l39.52,23.07Z"/>
      <path class="cls-1" d="m208.84,89.82v80.18c0,5.41-1.5,10.61-4.2,15.08-.46.76-.95,1.5-1.48,2.21-.93,1.27-1.98,2.47-3.12,3.57-1.72,1.68-3.64,3.15-5.77,4.38l-8.36,4.82-1.66.96-3.4,1.97-56.02,32.34c-9.02,5.2-20.13,5.2-29.15,0l-.61-.35c2.75-4.31,5.69-9.11,8.82-14.4l.23.14c3.79,2.19,8.47,2.19,12.27,0l56.32-32.51,3.5-2.02,1.76-1.01,7.87-4.54c3-1.74,5.11-4.64,5.84-7.95.19-.87.3-1.76.3-2.67v-80.18c0-4.38-2.34-8.43-6.14-10.63l-2.32-1.34c1.1-5.65,2.66-11.26,4.78-16.73l5.98,3.45c9.02,5.2,14.57,14.83,14.57,25.24Z"/>
    </g>
  </g>
</svg>