<svg width="44" height="44" viewBox="0 0 44 44" fill="none" xmlns="http://www.w3.org/2000/svg">
<path d="M20 1.1547C21.2376 0.440169 22.7624 0.440169 24 1.1547L39.0526 9.8453C40.2902 10.5598 41.0526 11.8803 41.0526 13.3094V30.6906C41.0526 32.1197 40.2902 33.4402 39.0526 34.1547L24 42.8453C22.7624 43.5598 21.2376 43.5598 20 42.8453L4.94744 34.1547C3.70984 33.4402 2.94744 32.1197 2.94744 30.6906V13.3094C2.94744 11.8803 3.70984 10.5598 4.94744 9.8453L20 1.1547Z" fill="#192038"/>
<path d="M40.5591 40.9604H38.4248C38.3348 40.8601 38.2329 40.7393 38.1148 40.5978C37.154 39.4218 35.3149 36.7912 32.971 32.5852C32.5887 31.8984 32.1916 31.1689 31.7828 30.3981C31.1481 29.197 30.4839 27.8928 29.7961 26.4824C25.6397 17.954 30.1046 10.5765 32.8573 7.95322H34.9916C34.8529 8.1227 34.7186 8.29512 34.5901 8.46902C30.1784 14.4479 32.2418 22.9101 33.8787 26.4839L34.109 26.9835L35.7606 30.5632L40.5576 40.9618L40.5591 40.9604Z" fill="#00E973"/>
<path d="M25.0876 26.6961C20.9312 35.2246 17.6028 39.9022 16.4604 41.1741H14.3261L14.5121 40.7688L21.005 26.6947C22.6021 23.2093 24.605 15.0758 20.6095 9.13074C20.3895 8.80062 20.1504 8.47935 19.8921 8.16397H22.0264C22.1386 8.27008 22.2537 8.38503 22.3688 8.50735C22.4013 8.54125 22.4323 8.57367 22.4648 8.60756C25.2161 11.5506 29.0286 18.6039 25.0876 26.6932V26.6961Z" fill="#FFE920"/>
<path fill-rule="evenodd" clip-rule="evenodd" d="M30.5312 9.97612C30.109 10.6143 29.6972 11.332 29.3267 12.116L23.4537 8.72935C23.2264 8.59819 22.9785 8.52008 22.7246 8.4965C22.6729 8.4906 22.6228 8.48766 22.5711 8.48766C22.3541 8.48471 22.1342 8.52008 21.9276 8.59671C21.8301 8.63061 21.7342 8.67482 21.6427 8.72787L21.1866 8.99167L20.9667 9.11841L20.7777 9.226L11.3948 14.6346C10.8339 14.9588 10.4885 15.5557 10.4885 16.2012V28.0175C10.4885 28.663 10.8339 29.2599 11.3948 29.5826L17.6575 33.1933L16.6213 35.4392L10.1505 31.7372C8.81918 30.9694 8 29.5517 8 28.0175V16.2012C8 14.667 8.81918 13.2478 10.1505 12.4815L20.3955 6.57475C21.7268 5.80842 23.3667 5.80842 24.698 6.57475L30.5312 9.97465V9.97612Z" fill="#096CFF"/>
<path fill-rule="evenodd" clip-rule="evenodd" d="M36.8248 16.2371V28.0534C36.8248 28.8507 36.6034 29.6171 36.2049 30.2758C36.137 30.3878 36.0647 30.4969 35.9865 30.6015C35.8492 30.7887 35.6942 30.9655 35.5259 31.1276C35.2721 31.3752 34.9887 31.5919 34.6743 31.7731L33.4404 32.4835L33.1953 32.625L32.6935 32.9153L24.4249 37.6813C23.0936 38.4477 21.4537 38.4477 20.1224 37.6813L20.0323 37.6297C20.4382 36.9946 20.8722 36.2872 21.3342 35.5076L21.3681 35.5282C21.9275 35.8509 22.6183 35.8509 23.1792 35.5282L31.492 30.7371L32.0086 30.4394L32.2684 30.2906L33.43 29.6215C33.8728 29.3651 34.1843 28.9377 34.292 28.4499C34.32 28.3217 34.3363 28.1905 34.3363 28.0564V16.24C34.3363 15.5945 33.9909 14.9977 33.43 14.6734L33.0876 14.476C33.2499 13.6433 33.4802 12.8165 33.7931 12.0104L34.6758 12.5188C36.0071 13.2852 36.8263 14.7044 36.8263 16.2385L36.8248 16.2371Z" fill="#096CFF"/>
</svg>
