<svg width="34" height="36" viewBox="0 0 34 36" fill="none" xmlns="http://www.w3.org/2000/svg">
<path d="M33.5442 35.4603H31.4108C31.3208 35.3601 31.219 35.2392 31.101 35.0977C30.1405 33.9217 28.3022 31.2911 25.9593 27.0851C25.5772 26.3983 25.1803 25.6688 24.7716 24.898C24.1372 23.697 23.4733 22.3927 22.7858 20.9823C18.6312 12.4539 23.0942 5.07637 25.8457 2.45312H27.9791C27.8404 2.6226 27.7061 2.79503 27.5778 2.96893C23.1679 8.94786 25.2305 17.41 26.8667 20.9838L27.0968 21.4834L28.7478 25.0631L33.5427 35.4617L33.5442 35.4603Z" fill="#FFE920"/>
<path d="M18.0794 21.1962C13.9248 29.7247 10.5978 34.4023 9.45589 35.6742H7.32251L7.50841 35.2689L13.9985 21.1948C15.5949 17.7094 17.5969 9.57586 13.6031 3.63083C13.3833 3.30071 13.1443 2.97944 12.8861 2.66406H15.0195C15.1316 2.77017 15.2467 2.88512 15.3618 3.00744C15.3942 3.04134 15.4252 3.07376 15.4577 3.10766C18.2077 6.0507 22.0186 13.104 18.0794 21.1933V21.1962Z" fill="#33FF99"/>
<path fill-rule="evenodd" clip-rule="evenodd" d="M23.2491 4.51055C22.8271 5.14867 22.4155 5.86638 22.0452 6.65041L16.1747 3.26377C15.9475 3.13261 15.6997 3.0545 15.4459 3.03092C15.3943 3.02503 15.3441 3.02208 15.2925 3.02208C15.0756 3.01913 14.8558 3.0545 14.6492 3.13114C14.5518 3.16503 14.4559 3.20924 14.3645 3.2623L13.9086 3.5261L13.6887 3.65284L13.4999 3.76042L4.121 9.16901C3.56036 9.49323 3.21513 10.0901 3.21513 10.7356V22.552C3.21513 23.1975 3.56036 23.7943 4.121 24.1171L10.381 27.7277L9.34527 29.9737L2.87727 26.2717C1.54649 25.5038 0.727661 24.0861 0.727661 22.552V10.7356C0.727661 9.20143 1.54649 7.78223 2.87727 7.01589L13.1178 1.10918C14.4486 0.342839 16.0877 0.342839 17.4185 1.10918L23.2491 4.50908V4.51055Z" fill="#096CFF"/>
<path fill-rule="evenodd" clip-rule="evenodd" d="M29.8115 10.7372V22.5535C29.8115 23.3508 29.5902 24.1172 29.1918 24.7759C29.1239 24.8879 29.0517 24.997 28.9735 25.1016C28.8363 25.2888 28.6813 25.4656 28.5131 25.6277C28.2594 25.8753 27.9761 26.092 27.6619 26.2732L26.4285 26.9836L26.1835 27.125L25.6819 27.4154L17.4169 32.1814C16.0862 32.9477 14.447 32.9477 13.1162 32.1814L13.0262 32.1298C13.432 31.4946 13.8657 30.7873 14.3275 30.0077L14.3615 30.0283C14.9206 30.351 15.6111 30.351 16.1717 30.0283L24.481 25.2372L24.9974 24.9395L25.257 24.7906L26.4181 24.1216C26.8607 23.8651 27.172 23.4378 27.2797 22.95C27.3078 22.8217 27.324 22.6906 27.324 22.5565V10.7401C27.324 10.0946 26.9788 9.49775 26.4181 9.17353L26.0758 8.97605C26.2381 8.14339 26.4683 7.31663 26.7811 6.5105L27.6633 7.01893C28.9941 7.78527 29.8129 9.20448 29.8129 10.7386L29.8115 10.7372Z" fill="#096CFF"/>
</svg>
